<?xml version="1.0" encoding="UTF-8"?>
<svg version="1.1" xmlns="http://www.w3.org/2000/svg" width="325" height="325">
<path d="M0 0 C9.50069904 3.90590047 17.76337236 1.46016617 26.875 -2.25 C41.14847706 -7.59142352 53.35686025 -8.65400581 67.6953125 -2.7265625 C76.01843011 1.21596689 83.888082 5.61657687 88.8125 13.75 C88.7734375 15.83984375 88.7734375 15.83984375 87.8125 17.75 C86.02734375 19.21484375 86.02734375 19.21484375 83.75 20.6875 C75.99230201 26.40043733 70.15377329 36.2513146 68.20703125 45.68359375 C66.49527252 58.98785718 68.48519009 70.89197811 76.34765625 81.9453125 C77.77831966 83.7837265 77.77831966 83.7837265 79.49609375 85.3671875 C80.8125 86.75 80.8125 86.75 80.8125 88.75 C82.4625 89.41 84.1125 90.07 85.8125 90.75 C85.8125 91.41 85.8125 92.07 85.8125 92.75 C86.369375 92.87375 86.92625 92.9975 87.5 93.125 C90.03364364 93.80976855 92.39171032 94.74133763 94.8125 95.75 C92.88702067 114.5956289 77.45802441 135.40404935 63.8125 147.75 C63.1525 147.75 62.4925 147.75 61.8125 147.75 C61.8125 148.41 61.8125 149.07 61.8125 149.75 C52.48216999 154.19679558 45.5275909 155.13148636 35.625 151.9375 C32.41670951 150.78935543 29.43767319 149.56599411 26.375 148.0625 C14.89193288 143.83189632 3.69284286 146.02151372 -7.1875 150.875 C-7.868125 151.20757812 -8.54875 151.54015625 -9.25 151.8828125 C-15.36645655 154.62042007 -23.05207697 154.92547983 -29.46875 153.1015625 C-37.64220978 149.30674189 -44.54407865 142.401092 -49.1875 134.75 C-49.1875 134.09 -49.1875 133.43 -49.1875 132.75 C-49.8475 132.75 -50.5075 132.75 -51.1875 132.75 C-60.79268809 119.58232431 -67.59150562 104.30298478 -72.1875 88.75 C-72.49558594 87.72648437 -72.80367188 86.70296875 -73.12109375 85.6484375 C-75.80632066 76.32080717 -76.36899332 67.47725562 -76.375 57.8125 C-76.38724609 56.77931641 -76.39949219 55.74613281 -76.41210938 54.68164062 C-76.44096124 39.49594107 -72.02330891 24.52104921 -62.1875 12.75 C-61.54167969 11.96882813 -60.89585938 11.18765625 -60.23046875 10.3828125 C-43.96126947 -7.54650915 -21.09732072 -9.42145104 0 0 Z " fill="#676767" transform="translate(153.1875,84.25)"/>
<path d="M0 0 C0.42983371 13.32484491 -2.77503402 25.08045995 -11.109375 35.68359375 C-19.37971236 44.37917896 -28.47987529 49.54356475 -40.5 50.1875 C-43 50 -43 50 -44 49 C-45.22243947 37.57489263 -41.79692365 27.12483407 -35 18 C-26.23082194 7.44884993 -14.12735915 -0.56509437 0 0 Z " fill="#686768" transform="translate(205,28)"/>
<path d="M0 0 C13.95906226 -0.68839211 13.95906226 -0.68839211 17.75 1.75 C21.21569332 5.21569332 22.29889135 7.98882454 22.375 12.875 C22.26921508 17.66353052 21.278475 20.36709527 18 24 C14.14623534 26.81184562 11.48980082 27.36674386 6.75 27.25 C5.69296875 27.23453125 4.6359375 27.2190625 3.546875 27.203125 C1 27 1 27 0 26 C-0.08748207 24.07332493 -0.10697334 22.14348139 -0.09765625 20.21484375 C-0.09443359 19.04501953 -0.09121094 17.87519531 -0.08789062 16.66992188 C-0.07951172 15.43822266 -0.07113281 14.20652344 -0.0625 12.9375 C-0.05798828 11.70193359 -0.05347656 10.46636719 -0.04882812 9.19335938 C-0.03699608 6.12885883 -0.02051173 3.06445279 0 0 Z M4 3 C4 9.93 4 16.86 4 24 C12.28550825 24.74420841 12.28550825 24.74420841 16.0625 22.25 C18.93363788 17.43389774 19.09176432 12.47388042 18 7 C16.71839992 4.4354333 16.71839992 4.4354333 14 3 C10.7 3 7.4 3 4 3 Z " fill="#646163" transform="translate(203,263)"/>
<path d="M0 0 C2.29691412 2.40076396 3.32236658 4.7636228 4 8 C3.82536752 12.01654693 3.12118944 15.48706967 0.703125 18.75 C-1.54386626 20.3991679 -2.93190541 20.30730846 -5.6875 20.1875 C-6.49574219 20.16042969 -7.30398437 20.13335937 -8.13671875 20.10546875 C-8.75160156 20.07066406 -9.36648437 20.03585937 -10 20 C-10.33 21.98 -10.66 23.96 -11 26 C-11.99 26 -12.98 26 -14 26 C-14 17.42 -14 8.84 -14 0 C-4.05398773 -1.65766871 -4.05398773 -1.65766871 0 0 Z M-9.8125 3.5 C-11.57678933 7.21429332 -11.32591105 9.89352076 -11 14 C-9.36246318 17.04444636 -9.36246318 17.04444636 -7.125 17.8125 C-4.45757574 18.04786096 -3.21946294 17.45413089 -1 16 C0.59537236 12.80925528 0.37735822 9.47169561 0 6 C-1.00036981 3.43991037 -1.00036981 3.43991037 -3 2 C-6.10335909 1.37932818 -7.35775889 1.46849011 -9.8125 3.5 Z " fill="#6B696A" transform="translate(158,270)"/>
<path d="M0 0 C2.82348129 2.17074099 3.87735965 3.33629927 4.53125 6.875 C4.5209375 7.90625 4.510625 8.9375 4.5 10 C4.5103125 11.03125 4.520625 12.0625 4.53125 13.125 C3.87207942 16.69227611 2.91950605 17.88587493 0 20 C-2.359375 20.390625 -2.359375 20.390625 -4.75 20.25 C-5.54921875 20.21390625 -6.3484375 20.1778125 -7.171875 20.140625 C-8.07679688 20.07101562 -8.07679688 20.07101562 -9 20 C-9.33 21.98 -9.66 23.96 -10 26 C-10.99 26 -11.98 26 -13 26 C-13 17.42 -13 8.84 -13 0 C-7.82429628 -0.86261729 -4.95550266 -1.19299138 0 0 Z M-8.875 3.9375 C-10.42978228 8.16996288 -9.78951764 11.63387234 -9 16 C-5.55810696 17.73155813 -5.55810696 17.73155813 -1.8125 17.5625 C1.03846007 15.1047758 1.38351512 12.63726079 2 9 C1.14283688 5.78563832 0.35024234 4.35024234 -2 2 C-5.35465462 1.3978825 -6.4682841 1.45056024 -8.875 3.9375 Z " fill="#6C686A" transform="translate(137,270)"/>
<path d="M0 0 C1.87890625 0.23046875 1.87890625 0.23046875 4 1 C5.08984375 2.86328125 5.08984375 2.86328125 5.9375 5.3125 C7.78080538 10.41647305 9.86987843 15.36556582 12.046875 20.3359375 C13 23 13 23 13 27 C12.01 27 11.02 27 10 27 C9.01 24.03 8.02 21.06 7 18 C3.51788789 17.89367597 0.34851879 17.98704682 -3 19 C-5.05223386 21.43896134 -6.07474636 23.9687586 -7 27 C-7.99 27 -8.98 27 -10 27 C-8.38201525 17.55879226 -4.53371697 8.39577217 0 0 Z M1 5 C0.505 6.0725 0.01 7.145 -0.5 8.25 C-0.7784375 8.85328125 -1.056875 9.4565625 -1.34375 10.078125 C-2.21542924 12.29242836 -2.21542924 12.29242836 -2 16 C0.64 16 3.28 16 6 16 C5.55123384 14.35153231 5.09069512 12.70626545 4.625 11.0625 C4.24214844 9.68771484 4.24214844 9.68771484 3.8515625 8.28515625 C3.23339896 5.83254913 3.23339896 5.83254913 1 5 Z " fill="#4C484B" transform="translate(110,263)"/>
<path d="M0 0 C2.4375 2.25 2.4375 2.25 4 5 C4 6.65 4 8.3 4 10 C-0.95 10 -5.9 10 -11 10 C-10.01 11.98 -9.02 13.96 -8 16 C-5.12586875 16.33397787 -5.12586875 16.33397787 -2 16 C-0.29467677 14.05990478 -0.29467677 14.05990478 1 12 C1.99 12 2.98 12 4 12 C2.375 17.75 2.375 17.75 -1 20 C-7.97233202 20.55335968 -7.97233202 20.55335968 -11.4375 18.6875 C-14.33755339 15.55544234 -14.2793456 12.12050108 -14.21875 8 C-13.89560485 5.04553003 -12.87365809 3.27515625 -11 1 C-7.44724114 -1.79145339 -4.20120319 -1.12532228 0 0 Z M-9.375 3.9375 C-9.91125 4.618125 -10.4475 5.29875 -11 6 C-10.67 6.99 -10.34 7.98 -10 9 C-6.7 9 -3.4 9 0 9 C-0.33 7.02 -0.66 5.04 -1 3 C-5.50810087 1.66620222 -5.50810087 1.66620222 -9.375 3.9375 Z " fill="#757276" transform="translate(182,270)"/>
<path d="M0 0 C0.99 0 1.98 0 3 0 C4.27861615 2.55723229 4.11336609 4.36737102 4.09765625 7.2265625 C4.09282227 8.7734375 4.09282227 8.7734375 4.08789062 10.3515625 C4.07951172 11.43179687 4.07113281 12.51203125 4.0625 13.625 C4.05798828 14.71296875 4.05347656 15.8009375 4.04882812 16.921875 C4.03701776 19.61463789 4.02054778 22.30729188 4 25 C5.98 25 7.96 25 10 25 C10 25.66 10 26.32 10 27 C8.52093108 27.02689216 7.04172517 27.04634621 5.5625 27.0625 C4.32693359 27.07990234 4.32693359 27.07990234 3.06640625 27.09765625 C1 27 1 27 0 26 C-0.08748207 24.07332493 -0.10697334 22.14348139 -0.09765625 20.21484375 C-0.09443359 19.04501953 -0.09121094 17.87519531 -0.08789062 16.66992188 C-0.07951172 15.43822266 -0.07113281 14.20652344 -0.0625 12.9375 C-0.05798828 11.70193359 -0.05347656 10.46636719 -0.04882812 9.19335938 C-0.03699608 6.12885883 -0.02051173 3.06445279 0 0 Z " fill="#919091" transform="translate(203,263)"/>
<path d="M0 0 C1.32 0 2.64 0 4 0 C4 8.58 4 17.16 4 26 C2.68 26 1.36 26 0 26 C0 17.42 0 8.84 0 0 Z " fill="#5D575A" transform="translate(197,263)"/>
<path d="M0 0 C0.66 0.33 1.32 0.66 2 1 C2.6104394 9.88528458 2.6104394 9.88528458 0.5625 13.625 C-3.23657069 15.66352574 -6.77785621 15.32478029 -11 15 C-11.33 16.98 -11.66 18.96 -12 21 C-12.99 21 -13.98 21 -15 21 C-14.67 17.7 -14.34 14.4 -14 11 C-12.01432292 11.29296875 -10.02864583 11.5859375 -8.04296875 11.87890625 C-5.7974658 12.13904799 -5.7974658 12.13904799 -3 11 C-1.17829434 7.45779454 -0.54730376 3.92234364 0 0 Z " fill="#5B595B" transform="translate(139,275)"/>
<path d="M0 0 C1.85546875 0.19140625 1.85546875 0.19140625 4 1 C5.30078125 3.21484375 5.30078125 3.21484375 6.3125 5.9375 C6.65925781 6.83339844 7.00601563 7.72929687 7.36328125 8.65234375 C8 11 8 11 7 13 C6.01 13.495 6.01 13.495 5 14 C4.01 11.36 3.02 8.72 2 6 C0.68 8.64 -0.64 11.28 -2 14 C-2.99 14 -3.98 14 -5 14 C-3.70022952 9.1008651 -2.07626313 4.62440425 0 0 Z " fill="#737073" transform="translate(110,263)"/>
<path d="M0 0 C0.66 0 1.32 0 2 0 C2 8.91 2 17.82 2 27 C1.01 26.67 0.02 26.34 -1 26 C-1.02886751 21.85418113 -1.04675327 17.70838784 -1.0625 13.5625 C-1.07087891 12.37849609 -1.07925781 11.19449219 -1.08789062 9.97460938 C-1.09111328 8.84990234 -1.09433594 7.72519531 -1.09765625 6.56640625 C-1.10289307 5.52427979 -1.10812988 4.48215332 -1.11352539 3.40844727 C-1 1 -1 1 0 0 Z " fill="#898889" transform="translate(164,263)"/>
<path d="M0 0 C0.66 0 1.32 0 2 0 C3.68704159 8.67621391 4.51133664 17.26783274 3 26 C2.01 26 1.02 26 0 26 C0 17.42 0 8.84 0 0 Z " fill="#5E5B5C" transform="translate(144,270)"/>
<path d="M0 0 C0.99 0 1.98 0 3 0 C1.375 5.75 1.375 5.75 -2 8 C-3.9375 8.265625 -3.9375 8.265625 -6 8.25 C-6.680625 8.25515625 -7.36125 8.2603125 -8.0625 8.265625 C-10 8 -10 8 -13 6 C-12.67 4.35 -12.34 2.7 -12 1 C-11.62875 1.495 -11.2575 1.99 -10.875 2.5 C-9.0014421 4.25790052 -9.0014421 4.25790052 -6 4.4375 C-2.89427735 4.32325087 -2.89427735 4.32325087 -1.3125 2 C-0.879375 1.34 -0.44625 0.68 0 0 Z " fill="#807F80" transform="translate(183,282)"/>
<path d="M0 0 C1.74965358 -0.05429959 3.49979787 -0.09292823 5.25 -0.125 C6.22453125 -0.14820313 7.1990625 -0.17140625 8.203125 -0.1953125 C11.0196498 0.00137219 12.60949036 0.55431084 15 2 C14.67 2.99 14.34 3.98 14 5 C9.71 4.34 5.42 3.68 1 3 C0.67 2.01 0.34 1.02 0 0 Z " fill="#555455" transform="translate(206,263)"/>
<path d="M0 0 C0 1.65 0 3.3 0 5 C-4.95 5 -9.9 5 -15 5 C-15.33 7.31 -15.66 9.62 -16 12 C-16.33 12 -16.66 12 -17 12 C-17.1953125 5.9453125 -17.1953125 5.9453125 -17 4 C-16.34 3.34 -15.68 2.68 -15 2 C-14.67 2.33 -14.34 2.66 -14 3 C-12.15108054 3.23363881 -10.29511969 3.41303635 -8.4375 3.5625 C-6.91962891 3.68818359 -6.91962891 3.68818359 -5.37109375 3.81640625 C-4.19740234 3.90728516 -4.19740234 3.90728516 -3 4 C-3 3.01 -3 2.02 -3 1 C-1 0 -1 0 0 0 Z " fill="#514E50" transform="translate(186,275)"/>
<path d="M0 0 C3.44165927 4.22385456 5 7.50060584 5 13 C4.01 13 3.02 13 2 13 C-1.62870159 4.738041 -1.62870159 4.738041 0 0 Z " fill="#5B585C" transform="translate(118,277)"/>
<path d="M0 0 C0.33 0 0.66 0 1 0 C1.33 2.64 1.66 5.28 2 8 C2.33 8 2.66 8 3 8 C3.33 10.64 3.66 13.28 4 16 C3.01 16 2.02 16 1 16 C1 18.31 1 20.62 1 23 C0.67 23 0.34 23 0 23 C0 15.41 0 7.82 0 0 Z " fill="#868384" transform="translate(124,270)"/>
<path d="M0 0 C0.66 0 1.32 0 2 0 C2.33 0.99 2.66 1.98 3 3 C2.34 3 1.68 3 1 3 C-0.96301592 6.50538557 -1.95902388 10.13351728 -3 14 C-3.33 14 -3.66 14 -4 14 C-4.27377394 8.61577922 -4.37535297 5.45546592 -1 1 C-0.67 0.67 -0.34 0.34 0 0 Z " fill="#777576" transform="translate(172,270)"/>
<path d="M0 0 C0.7425 0.185625 1.485 0.37125 2.25 0.5625 C4.92229373 1.17472428 4.92229373 1.17472428 7.1875 0.4375 C7.785625 0.293125 8.38375 0.14875 9 0 C9.66 0.66 10.32 1.32 11 2 C9 4 9 4 6.8359375 4.1953125 C5.61777344 4.16050781 5.61777344 4.16050781 4.375 4.125 C3.55773437 4.10695313 2.74046875 4.08890625 1.8984375 4.0703125 C1.27195313 4.04710937 0.64546875 4.02390625 0 4 C-0.33 3.34 -0.66 2.68 -1 2 C-0.67 1.34 -0.34 0.68 0 0 Z " fill="#7A7878" transform="translate(148,286)"/>
<path d="M0 0 C0.99 0.33 1.98 0.66 3 1 C2.44271087 4.34373475 1.64826111 7.03312999 0 10 C-0.99 10 -1.98 10 -3 10 C-2.39009109 6.44219804 -1.4216319 3.3171411 0 0 Z " fill="#616162" transform="translate(103,280)"/>
<path d="M0 0 C0.66 0 1.32 0 2 0 C1.67 3.96 1.34 7.92 1 12 C0.01 12 -0.98 12 -2 12 C-1.85904936 10.3745692 -1.71207913 8.74965949 -1.5625 7.125 C-1.48128906 6.22007812 -1.40007812 5.31515625 -1.31640625 4.3828125 C-1 2 -1 2 0 0 Z " fill="#555253" transform="translate(146,284)"/>
<path d="M0 0 C0.99 0 1.98 0 3 0 C2.34 2.97 1.68 5.94 1 9 C0.01 9 -0.98 9 -2 9 C-1.125 1.125 -1.125 1.125 0 0 Z " fill="#646263" transform="translate(159,278)"/>
<path d="M0 0 C2.2477975 2.05233685 3.0022242 3.00667261 4 6 C3.34 6.66 2.68 7.32 2 8 C1.30251417 9.31747324 0.63040043 10.64914193 0 12 C-0.1953125 10.01432292 -0.390625 8.02864583 -0.5859375 6.04296875 C-0.92665391 3.70011858 -0.92665391 3.70011858 -3 1 C-2.01 0.67 -1.02 0.34 0 0 Z " fill="#838183" transform="translate(221,266)"/>
<path d="M0 0 C0.66 0.33 1.32 0.66 2 1 C2 4.3 2 7.6 2 11 C1.01 11 0.02 11 -1 11 C-0.67 7.37 -0.34 3.74 0 0 Z " fill="#5A5557" transform="translate(139,275)"/>
<path d="M0 0 C0.33 0 0.66 0 1 0 C0.125 6.75 0.125 6.75 -1 9 C-1.99 9 -2.98 9 -4 9 C-2.25 2.25 -2.25 2.25 0 0 Z " fill="#646366" transform="translate(109,268)"/>
<path d="M0 0 C0.33 0.66 0.66 1.32 1 2 C1.66 2.33 2.32 2.66 3 3 C1.9375 4.5 1.9375 4.5 0 6 C-3.6875 6.1875 -3.6875 6.1875 -7 6 C-4.94766315 3.7522025 -3.99332739 2.9977758 -1 2 C-0.67 1.34 -0.34 0.68 0 0 Z " fill="#757475" transform="translate(137,284)"/>
<path d="M0 0 C0.99 0 1.98 0 3 0 C2.25 2.9375 2.25 2.9375 1 6 C-1.125 6.875 -1.125 6.875 -3 7 C-2.01 4.69 -1.02 2.38 0 0 Z " fill="#6A6969" transform="translate(183,282)"/>
<path d="M0 0 C0 0.99 0 1.98 0 3 C-1.65 3.33 -3.3 3.66 -5 4 C-5 3.34 -5 2.68 -5 2 C-6.98 2 -8.96 2 -11 2 C-11 1.67 -11 1.34 -11 1 C-9.54182203 0.83197949 -8.0834516 0.66562857 -6.625 0.5 C-5.81289062 0.4071875 -5.00078125 0.314375 -4.1640625 0.21875 C-2 0 -2 0 0 0 Z " fill="#5C5A5D" transform="translate(218,286)"/>
<path d="M0 0 C1.65 0 3.3 0 5 0 C5.33 0.99 5.66 1.98 6 3 C3.69 3 1.38 3 -1 3 C-0.67 2.01 -0.34 1.02 0 0 Z " fill="#514F50" transform="translate(175,269)"/>
<path d="M0 0 C1.5625 1.8125 1.5625 1.8125 3 4 C2 7 2 7 0 8 C-1.125 2.25 -1.125 2.25 0 0 Z " fill="#696869" transform="translate(118,277)"/>
</svg>
