<?xml version="1.0" encoding="UTF-8"?>
<svg version="1.1" xmlns="http://www.w3.org/2000/svg" width="269" height="269">
<path d="M0 0 C3.49274451 3.17349108 6.93747904 6.40516727 10 10 C10 10.66 10 11.32 10 12 C10.66 12 11.32 12 12 12 C13.62565029 13.79466875 15.09920126 15.57796431 16.5625 17.5 C17.22523926 18.37035889 17.22523926 18.37035889 17.90136719 19.25830078 C26.29905829 30.5721066 32.11200151 42.84246963 37 56 C37.33225586 56.78632812 37.66451172 57.57265625 38.00683594 58.3828125 C41.05111915 66.4051124 41.3909858 75.19572036 41.6875 83.6875 C41.72657471 84.73405762 41.76564941 85.78061523 41.8059082 86.85888672 C42.07341817 95.32678137 41.84761776 103.56988861 41 112 C40.92265625 113.12792969 40.8453125 114.25585938 40.765625 115.41796875 C38.65060946 137.29830814 25.06233253 157.76972454 11 174 C10.46375 174.75539062 9.9275 175.51078125 9.375 176.2890625 C8.92125 176.85367188 8.4675 177.41828125 8 178 C7.34 178 6.68 178 6 178 C6 178.66 6 179.32 6 180 C-5.70778555 193.16658311 -24.34915686 201.42543914 -40.203125 208.2109375 C-42.01893232 208.97218157 -42.01893232 208.97218157 -43.73120117 209.97998047 C-53.26126544 214.26456118 -65.76867259 213.31530586 -76.0402832 213.26074219 C-78.43141107 213.25002729 -80.82178541 213.26070192 -83.21289062 213.2734375 C-108.96616018 213.30228416 -108.96616018 213.30228416 -119.8125 207.625 C-121.06135015 206.99121872 -122.31135367 206.359705 -123.5625 205.73046875 C-124.696875 205.15941406 -125.83125 204.58835938 -127 204 C-128.76119906 203.28818204 -130.53111227 202.59717014 -132.3125 201.9375 C-137.58941128 199.8843971 -142.24503592 197.04978739 -147 194 C-147.86753906 193.45601562 -148.73507813 192.91203125 -149.62890625 192.3515625 C-154.35505093 189.3191379 -154.35505093 189.3191379 -156 188 C-156 187.34 -156 186.68 -156 186 C-156.88510254 185.60059204 -156.88510254 185.60059204 -157.78808594 185.19311523 C-160.04967866 183.97320313 -161.56525991 182.70724774 -163.390625 180.91015625 C-164.01364502 180.2970459 -164.63666504 179.68393555 -165.27856445 179.05224609 C-180.35295764 163.83784306 -191.73662756 146.05348976 -197 125 C-197.29519531 123.83984375 -197.59039062 122.6796875 -197.89453125 121.484375 C-205.15515094 89.3809676 -199.31983933 54.60354564 -182.1875 26.6875 C-177.81018152 19.75919484 -172.79204438 13.81151344 -167 8 C-166.15953125 7.15308594 -165.3190625 6.30617187 -164.453125 5.43359375 C-120.80010321 -37.87187213 -46.51348177 -40.3157751 0 0 Z " fill="#FBFBFA" transform="translate(214,42)"/>
<path d="M0 0 C33.66 0 67.32 0 102 0 C105.93263291 15.73053163 104.2567953 36.77003232 99 52 C98.68651611 52.94020996 98.68651611 52.94020996 98.36669922 53.89941406 C93.12069982 69.35841154 84.8239871 82.09208702 73.35009766 93.62646484 C72.18556461 94.81121401 71.06299886 96.03694792 69.94921875 97.26953125 C55.02162071 113.47572441 30.23613165 123.81201654 8.57836914 125.22290039 C4.84119158 125.33967931 1.11399464 125.38021114 -2.625 125.375 C-3.61561935 125.37418427 -3.61561935 125.37418427 -4.62625122 125.37335205 C-15.33318435 125.33288317 -24.87644323 124.45366542 -35 121 C-36.25039062 120.5875 -37.50078125 120.175 -38.7890625 119.75 C-54.03550994 114.36971033 -66.61191797 105.28328373 -78 94 C-78.67546875 93.37351562 -79.3509375 92.74703125 -80.046875 92.1015625 C-86.14327525 86.35584014 -90.95098362 79.31276897 -95 72 C-94.84427483 69.35267206 -94.24120324 68.29363873 -92.5625 66.25 C-91 65 -91 65 -89 65 C-89 64.34 -89 63.68 -89 63 C-87.34229079 61.66380379 -85.62147984 60.40537861 -83.875 59.1875 C-76.44098685 54.14299113 -76.44098685 54.14299113 -70.3125 47.6875 C-69.879375 47.130625 -69.44625 46.57375 -69 46 C-68.01 46 -67.02 46 -66 46 C-66 45.34 -66 44.68 -66 44 C-64.35 43.34 -62.7 42.68 -61 42 C-60.5875 42.82242188 -60.175 43.64484375 -59.75 44.4921875 C-50.89150599 61.61597279 -39.0614231 73.34748153 -20.453125 79.60546875 C-14.56685258 81.31796753 -8.91444968 81.53700706 -2.8125 81.5 C-1.71405762 81.49427979 -0.61561523 81.48855957 0.51611328 81.48266602 C14.17319837 81.18402412 24.96744597 77.14176873 36 69 C36.64324219 68.53980469 37.28648437 68.07960938 37.94921875 67.60546875 C46.48150639 60.95220176 51.25214978 51.49570044 56 42 C37.52 42 19.04 42 0 42 C0 28.14 0 14.28 0 0 Z " fill="#508EF9" transform="translate(137,115)"/>
<path d="M0 0 C1.28648437 0.29519531 2.57296875 0.59039063 3.8984375 0.89453125 C18.62776797 4.60916881 32.10060349 11.59743316 44 21 C42.82912116 24.51263651 41.89413625 25.1076766 39 27.3125 C33.98919567 31.20656936 29.07754555 35.20521876 24.1875 39.25 C22.07164456 40.99848045 19.95563 42.74633509 17.82958984 44.48242188 C16.26697012 45.77855801 14.74764226 47.12659055 13.23828125 48.484375 C11 50 11 50 8.90234375 49.8671875 C7.08166055 49.03722514 5.31910846 48.08315007 3.5625 47.125 C-9.83546714 40.41376966 -27.10042401 39.86294116 -41.5 43.5625 C-55.68929158 48.32557206 -67.84289972 57.40916052 -76 70 C-76.43957031 70.66257812 -76.87914062 71.32515625 -77.33203125 72.0078125 C-85.69873189 85.70796884 -87.20220864 102.328045 -84 117.875 C-83.814375 118.57367188 -83.62875 119.27234375 -83.4375 119.9921875 C-82.92004867 122.36691948 -82.9324606 124.57702415 -83 127 C-84.32 127.33 -85.64 127.66 -87 128 C-87 128.66 -87 129.32 -87 130 C-87.556875 130.226875 -88.11375 130.45375 -88.6875 130.6875 C-91.00946196 132.0053703 -92.60660739 133.52252624 -94.44921875 135.43359375 C-96.41131476 137.41545899 -98.44119543 139.30623745 -100.5 141.1875 C-101.2321875 141.86167969 -101.964375 142.53585938 -102.71875 143.23046875 C-105.07005895 145.05434368 -107.19805491 146.03806462 -110 147 C-110 147.66 -110 148.32 -110 149 C-111.53125 150.2890625 -111.53125 150.2890625 -113.5 151.625 C-114.47453125 152.29402344 -114.47453125 152.29402344 -115.46875 152.9765625 C-116.22671875 153.48316406 -116.22671875 153.48316406 -117 154 C-128.74372065 132.62642841 -133.5515912 104.14720049 -127.25 80.1875 C-126.53483667 77.78103812 -125.78738709 75.38380765 -125 73 C-124.67644531 71.91589844 -124.35289063 70.83179687 -124.01953125 69.71484375 C-115.81802372 43.23569086 -96.04463144 22.14810482 -72 9 C-49.94081372 -1.94115425 -24.15584367 -5.55408084 0 0 Z " fill="#FB3F1C" transform="translate(158,31)"/>
<path d="M0 0 C2.45589629 3.1088234 4.38243468 6.35613016 6.3125 9.8125 C14.83722239 24.43390536 27.94053266 33.64696275 44.18774414 38.3737793 C49.17143554 39.48352567 54.09912796 39.52930865 59.1875 39.5 C60.28231689 39.49718018 61.37713379 39.49436035 62.50512695 39.49145508 C74.03976389 39.26241416 82.75717625 36.23658606 93 31 C93.35771484 31.87591797 93.35771484 31.87591797 93.72265625 32.76953125 C95.26899274 35.46970904 96.96667385 36.80176548 99.4375 38.6875 C103.19041398 41.59681948 106.90007164 44.53970702 110.5625 47.5625 C115.31160089 51.45919817 120.12782489 55.25865072 125 59 C121.39151053 68.20164816 106.43298872 73.27055944 98 77 C85.2474158 81.72535341 72.92968917 83.39389155 59.375 83.375 C58.38438065 83.37418427 58.38438065 83.37418427 57.37374878 83.37335205 C46.66681565 83.33288317 37.12355677 82.45366542 27 79 C25.74960938 78.5875 24.49921875 78.175 23.2109375 77.75 C7.96449006 72.36971033 -4.61191797 63.28328373 -16 52 C-16.67546875 51.37351563 -17.3509375 50.74703125 -18.046875 50.1015625 C-24.14327525 44.35584014 -28.95098362 37.31276897 -33 30 C-32.84427483 27.35267206 -32.24120324 26.29363873 -30.5625 24.25 C-29 23 -29 23 -27 23 C-27 22.34 -27 21.68 -27 21 C-25.34229079 19.66380379 -23.62147984 18.40537861 -21.875 17.1875 C-14.44098685 12.14299113 -14.44098685 12.14299113 -8.3125 5.6875 C-7.6628125 4.8521875 -7.6628125 4.8521875 -7 4 C-6.01 4 -5.02 4 -4 4 C-4 3.34 -4 2.68 -4 2 C-2.68 1.34 -1.36 0.68 0 0 Z " fill="#27B143" transform="translate(75,157)"/>
<path d="M0 0 C0.33 0.66 0.66 1.32 1 2 C1.55945312 2.26941406 2.11890625 2.53882812 2.6953125 2.81640625 C5.80481227 4.41331884 8.26069563 6.65206387 10.875 8.9375 C16.26698095 13.58452598 21.78133366 18.03531974 27.41748047 22.38256836 C33.74904926 27.28866218 33.74904926 27.28866218 35 29 C34.85546875 30.8125 34.85546875 30.8125 34.1875 33 C31.73311639 43.36634073 31.82580429 55.69156894 34.5625 65.9921875 C35.07995133 68.36691948 35.0675394 70.57702415 35 73 C33.02 73.495 33.02 73.495 31 74 C31 74.66 31 75.32 31 76 C30.443125 76.226875 29.88625 76.45375 29.3125 76.6875 C26.99053804 78.0053703 25.39339261 79.52252624 23.55078125 81.43359375 C21.58868524 83.41545899 19.55880457 85.30623745 17.5 87.1875 C16.7678125 87.86167969 16.035625 88.53585938 15.28125 89.23046875 C12.92994105 91.05434368 10.80194509 92.03806462 8 93 C8 93.66 8 94.32 8 95 C6.46875 96.2890625 6.46875 96.2890625 4.5 97.625 C3.52546875 98.29402344 3.52546875 98.29402344 2.53125 98.9765625 C1.77328125 99.48316406 1.77328125 99.48316406 1 100 C-10.74508919 78.62393768 -15.54864445 50.14966976 -9.25 26.1875 C-8.53740166 23.78027733 -7.78983927 21.38299629 -7 19 C-6.65324219 17.88109375 -6.30648437 16.7621875 -5.94921875 15.609375 C-4.24647675 10.27104871 -2.31828301 5.10022263 0 0 Z " fill="#FCBC02" transform="translate(40,85)"/>
<path d="M0 0 C0.33 0 0.66 0 1 0 C1.26830896 4.20350701 1.03236295 7.28993234 -0.4375 11.25 C-3.72487094 20.34378074 -3.18189479 30.4487224 -3.1875 40 C-3.19974609 41.09828125 -3.21199219 42.1965625 -3.22460938 43.328125 C-3.31172966 55.04073808 -3.31172966 55.04073808 0.06176758 66.10546875 C1.37622783 68.75970023 1.13248221 71.08539147 1 74 C1.66 74 2.32 74 3 74 C3.18175781 74.71027344 3.36351562 75.42054688 3.55078125 76.15234375 C3.92783203 77.53099609 3.92783203 77.53099609 4.3125 78.9375 C4.55613281 79.85402344 4.79976562 80.77054687 5.05078125 81.71484375 C5.36402344 82.46894531 5.67726563 83.22304687 6 84 C6.99 84.33 7.98 84.66 9 85 C7.515 85.99 7.515 85.99 6 87 C-5.8475279 65.43749922 -10.51166903 36.93798275 -4.125 12.8125 C-3.45714737 10.52943342 -2.75304917 8.25639914 -2 6 C-1.43925781 4.30423828 -1.43925781 4.30423828 -0.8671875 2.57421875 C-0.58101562 1.72472656 -0.29484375 0.87523438 0 0 Z " fill="#EEBB28" transform="translate(35,98)"/>
<path d="M0 0 C0.33 0 0.66 0 1 0 C0.9278125 0.77601562 0.855625 1.55203125 0.78125 2.3515625 C-0.29871789 14.92118883 -0.4912998 26.42431524 2.34375 38.72265625 C2.92043919 41.60266951 3.13252504 44.07892733 3 47 C-4.57326295 38.19634699 -3.73969957 23.11931628 -3.19042969 12.11279297 C-2.806536 7.85354172 -1.69055692 3.9144443 0 0 Z " fill="#FAF6D4" transform="translate(75,114)"/>
<path d="M0 0 C1.14988403 0.20568604 1.14988403 0.20568604 2.32299805 0.41552734 C10.83806256 1.84397625 19.18872506 2.40747967 27.8125 2.625 C29.08931641 2.66367188 30.36613281 2.70234375 31.68164062 2.7421875 C34.78762777 2.83525079 37.89362686 2.9210815 41 3 C41 3.66 41 4.32 41 5 C36.8882744 5.02465746 32.77657722 5.04283959 28.66479492 5.05493164 C27.26504772 5.0599708 25.8653058 5.06680216 24.46557617 5.07543945 C22.45754223 5.0875232 20.44947043 5.09269807 18.44140625 5.09765625 C17.23170166 5.10289307 16.02199707 5.10812988 14.77563477 5.11352539 C12 5 12 5 11 4 C9.48530552 3.76807135 7.96245438 3.58784762 6.4375 3.4375 C5.61121094 3.35371094 4.78492187 3.26992187 3.93359375 3.18359375 C3.29550781 3.12300781 2.65742187 3.06242188 2 3 C2 2.34 2 1.68 2 1 C1.34 0.67 0.68 0.34 0 0 Z " fill="#DAF5E1" transform="translate(106,237)"/>
<path d="M0 0 C18.48 0 36.96 0 56 0 C53.75 6.75 53.75 6.75 51 10 C51.58929011 6.96936513 52.25044562 3.9982175 53 1 C35.51 1 18.02 1 0 1 C0 0.67 0 0.34 0 0 Z " fill="#EBFCFF" transform="translate(137,157)"/>
<path d="M0 0 C0.33 0.99 0.66 1.98 1 3 C0.175 3.763125 -0.65 4.52625 -1.5 5.3125 C-4.34055197 7.75434142 -4.34055197 7.75434142 -4 11 C-4.99 11.495 -4.99 11.495 -6 12 C-6.598125 11.7525 -7.19625 11.505 -7.8125 11.25 C-8.534375 11.1675 -9.25625 11.085 -10 11 C-12.68743506 13.27073609 -12.68743506 13.27073609 -15 16 C-15.66 16.66 -16.32 17.32 -17 18 C-19.125 17.625 -19.125 17.625 -21 17 C-14.1430354 11.12558825 -7.31356061 5.30591652 0 0 Z " fill="#F5F3F0" transform="translate(196,58)"/>
<path d="M0 0 C0.66 0 1.32 0 2 0 C2.12117188 0.74765625 2.24234375 1.4953125 2.3671875 2.265625 C2.53476562 3.25046875 2.70234375 4.2353125 2.875 5.25 C3.03742187 6.22453125 3.19984375 7.1990625 3.3671875 8.203125 C3.95253092 10.79019837 4.80985921 12.65938979 6 15 C6.125 18.25 6.125 18.25 6 21 C6.66 21 7.32 21 8 21 C8.18175781 21.71027344 8.36351562 22.42054688 8.55078125 23.15234375 C8.92783203 24.53099609 8.92783203 24.53099609 9.3125 25.9375 C9.67794922 27.31228516 9.67794922 27.31228516 10.05078125 28.71484375 C10.36402344 29.46894531 10.67726563 30.22304687 11 31 C11.99 31.33 12.98 31.66 14 32 C13.01 32.66 12.02 33.32 11 34 C5.11577055 23.29070239 0.98018367 12.2522959 0 0 Z " fill="#E9BE34" transform="translate(30,151)"/>
<path d="M0 0 C1.51980469 0.72316406 1.51980469 0.72316406 3.0703125 1.4609375 C4.42179122 2.09913578 5.77335844 2.73714668 7.125 3.375 C7.79015625 3.69210938 8.4553125 4.00921875 9.140625 4.3359375 C13.03110695 6.16675254 16.88104776 7.72966893 21 9 C18 10 18 10 16 9.4375 C15.34 9.293125 14.68 9.14875 14 9 C13.01 9.66 12.02 10.32 11 11 C11 10.34 11 9.68 11 9 C10.01 9 9.02 9 8 9 C8 8.01 8 7.02 8 6 C5.69 5.67 3.38 5.34 1 5 C0.67 3.35 0.34 1.7 0 0 Z " fill="#E5F7EA" transform="translate(81,226)"/>
<path d="M0 0 C0.99 0.66 1.98 1.32 3 2 C2.67 2.66 2.34 3.32 2 4 C1.34 4 0.68 4 0 4 C-0.061875 4.70125 -0.12375 5.4025 -0.1875 6.125 C-1.67319315 11.38206808 -5.53279488 15.02186325 -10 18 C-10.66 17.67 -11.32 17.34 -12 17 C-11.46890625 16.35933594 -10.9378125 15.71867188 -10.390625 15.05859375 C-6.43738036 10.21803326 -2.89239543 5.5437579 0 0 Z " fill="#E9F3F7" transform="translate(226,187)"/>
<path d="M0 0 C2.475 0.495 2.475 0.495 5 1 C5 1.66 5 2.32 5 3 C6.32 2.67 7.64 2.34 9 2 C10 8.625 10 8.625 10 12 C8.1875 12.625 8.1875 12.625 6 13 C5.01 12.34 4.02 11.68 3 11 C4.65 9.35 6.3 7.7 8 6 C7.236875 5.7525 6.47375 5.505 5.6875 5.25 C2.7635955 3.89004442 1.69995644 2.68414174 0 0 Z " fill="#F6E4DF" transform="translate(194,46)"/>
<path d="M0 0 C0.33 0 0.66 0 1 0 C1.33 9.57 1.66 19.14 2 29 C0 28 0 28 -0.63256836 26.29003906 C-1.06758842 23.57875124 -1.01024921 21.10298358 -0.87890625 18.359375 C-0.80639648 16.75449219 -0.80639648 16.75449219 -0.73242188 15.1171875 C-0.67634766 14.00601563 -0.62027344 12.89484375 -0.5625 11.75 C-0.51029297 10.62335938 -0.45808594 9.49671875 -0.40429688 8.3359375 C-0.27477014 5.55700028 -0.13980947 2.77843576 0 0 Z " fill="#FDF5C3" transform="translate(28,124)"/>
<path d="M0 0 C2.15591352 2.87455137 3.9898565 5.5292182 5.75 8.625 C6.19859375 9.40101563 6.6471875 10.17703125 7.109375 10.9765625 C7.40328125 11.64429688 7.6971875 12.31203125 8 13 C7.67 13.66 7.34 14.32 7 15 C6.67 14.01 6.34 13.02 6 12 C3.03 11.505 3.03 11.505 0 11 C0 7.37 0 3.74 0 0 Z " fill="#ECF4DE" transform="translate(38,179)"/>
<path d="M0 0 C0.33 0.66 0.66 1.32 1 2 C1.99 1.34 2.98 0.68 4 0 C4.99 0 5.98 0 7 0 C7 0.99 7 1.98 7 3 C7.8971875 3.4021875 7.8971875 3.4021875 8.8125 3.8125 C10.97224808 4.98493467 12.35790256 6.19369282 14 8 C10.21286807 8 8.16645599 6.73107406 4.8125 5 C3.72582031 4.443125 2.63914063 3.88625 1.51953125 3.3125 C0.68808594 2.879375 -0.14335937 2.44625 -1 2 C-0.67 1.34 -0.34 0.68 0 0 Z " fill="#F7E2DB" transform="translate(176,35)"/>
<path d="M0 0 C0.66 0.33 1.32 0.66 2 1 C0.91332031 1.96099609 0.91332031 1.96099609 -0.1953125 2.94140625 C-5.50918636 7.69555207 -10.52039226 12.43075795 -15 18 C-15.66 17.67 -16.32 17.34 -17 17 C-11.83794309 10.72690435 -6.12627407 5.3250511 0 0 Z " fill="#D6422B" transform="translate(70,50)"/>
<path d="M0 0 C0.33 0.66 0.66 1.32 1 2 C-0.21258505 5.23356015 -1.01284458 6.00856305 -4 8 C-4 8.66 -4 9.32 -4 10 C-4.721875 10.103125 -5.44375 10.20625 -6.1875 10.3125 C-9.24491993 11.05986932 -11.38329635 12.28045189 -14 14 C-14 13.34 -14 12.68 -14 12 C-12.20703125 10.44921875 -12.20703125 10.44921875 -9.8125 8.6875 C-6.23666547 5.99152381 -3.06234786 3.25991869 0 0 Z " fill="#DFF0F1" transform="translate(209,209)"/>
<path d="M0 0 C-4.01254885 3.51098025 -8.20983041 5.76537994 -13 8 C-13.33 7.34 -13.66 6.68 -14 6 C-13.01 6 -12.02 6 -11 6 C-11 5.34 -11 4.68 -11 4 C-10.34 4 -9.68 4 -9 4 C-8.566875 3.0409375 -8.566875 3.0409375 -8.125 2.0625 C-6.00428289 -1.82548136 -3.86823244 -0.91616031 0 0 Z " fill="#E3F2EA" transform="translate(172,185)"/>
<path d="M0 0 C2.97 1.98 2.97 1.98 6 4 C4.48601545 7.78496138 3.9855604 8.0072198 0 10 C0 6.7 0 3.4 0 0 Z " fill="#34AF4E" transform="translate(194,212)"/>
<path d="M0 0 C0.66 0.33 1.32 0.66 2 1 C0.71520959 2.50589388 -0.57804082 4.00457375 -1.875 5.5 C-2.59429687 6.3353125 -3.31359375 7.170625 -4.0546875 8.03125 C-4.69664062 8.6809375 -5.33859375 9.330625 -6 10 C-6.66 10 -7.32 10 -8 10 C-8.33 10.66 -8.66 11.32 -9 12 C-10.32 11.67 -11.64 11.34 -13 11 C-8.71 7.37 -4.42 3.74 0 0 Z " fill="#F8DFD8" transform="translate(188,64)"/>
<path d="M0 0 C0.33 1.32 0.66 2.64 1 4 C0.21625 4.556875 -0.5675 5.11375 -1.375 5.6875 C-4.1342791 8.11829349 -4.73446012 9.65535888 -6 13 C-6.99 13.33 -7.98 13.66 -9 14 C-7.34966761 8.71893635 -3.90667286 3.90667286 0 0 Z " fill="#F7D9D2" transform="translate(88,92)"/>
<path d="M0 0 C0.66 0.33 1.32 0.66 2 1 C1.67 1.99 1.34 2.98 1 4 C-0.65438613 4.69658363 -2.32254318 5.36096883 -4 6 C-4.495 6.495 -4.99 6.99 -5.5 7.5 C-7.4346384 9.4346384 -9.44465967 10.10217772 -12 11 C-8.38748484 6.43951988 -5.01202555 2.98334854 0 0 Z " fill="#F8E3DA" transform="translate(101,81)"/>
<path d="M0 0 C0.33 0 0.66 0 1 0 C1.37851209 5.93002267 0.10575375 10.47239641 -2 16 C-2.66 16 -3.32 16 -4 16 C-3.47606294 10.13190493 -2.23891142 5.45126259 0 0 Z " fill="#F0B92A" transform="translate(35,98)"/>
<path d="M0 0 C1.65 0 3.3 0 5 0 C1.56638098 3.63559661 -1.7973607 6.36113346 -6 9 C-5.4409112 5.75728494 -4.5867822 4.06942576 -2 2 C-1.34 2 -0.68 2 0 2 C0 1.34 0 0.68 0 0 Z " fill="#E14629" transform="translate(180,67)"/>
<path d="M0 0 C-4.455 3.465 -4.455 3.465 -9 7 C-9.66 5.68 -10.32 4.36 -11 3 C-9.73581754 2.30034557 -8.46334598 1.61565237 -7.1875 0.9375 C-6.47980469 0.55464844 -5.77210937 0.17179687 -5.04296875 -0.22265625 C-3 -1 -3 -1 0 0 Z " fill="#F7DED8" transform="translate(76,47)"/>
<path d="M0 0 C0.99 0.33 1.98 0.66 3 1 C-0.96 4.465 -0.96 4.465 -5 8 C-5.33 7.01 -5.66 6.02 -6 5 C-1.60546875 0.99609375 -1.60546875 0.99609375 0 0 Z " fill="#38AF39" transform="translate(64,166)"/>
<path d="M0 0 C1.98 0.99 1.98 0.99 4 2 C4 2.99 4 3.98 4 5 C4.66 5 5.32 5 6 5 C7.0625 6.8125 7.0625 6.8125 8 9 C7.67 9.99 7.34 10.98 7 12 C5.83061933 10.18924982 4.66456267 8.37635257 3.5 6.5625 C2.8503125 5.55316406 2.200625 4.54382813 1.53125 3.50390625 C0 1 0 1 0 0 Z " fill="#DBF6DE" transform="translate(78,162)"/>
<path d="M0 0 C0.99 0.495 0.99 0.495 2 1 C2 1.99 2 2.98 2 4 C2.66 4 3.32 4 4 4 C4.33 7.3 4.66 10.6 5 14 C2.21139503 10.28186004 1.5477646 9.04846999 0.8125 4.75 C0.65394531 3.85796875 0.49539062 2.9659375 0.33203125 2.046875 C0.22246094 1.37140625 0.11289063 0.6959375 0 0 Z " fill="#EEF1CB" transform="translate(73,147)"/>
<path d="M0 0 C1.32 0.66 2.64 1.32 4 2 C2.66667905 5.99996286 0.5042173 6.83782337 -3 9 C-2.625 6.0625 -2.625 6.0625 -2 3 C-1.34 2.67 -0.68 2.34 0 2 C0 1.34 0 0.68 0 0 Z " fill="#DF442B" transform="translate(198,50)"/>
<path d="M0 0 C1.32 0.33 2.64 0.66 4 1 C4 1.66 4 2.32 4 3 C0.04 4.98 0.04 4.98 -4 7 C-4.66 6.34 -5.32 5.68 -6 5 C-5.195625 4.54625 -4.39125 4.0925 -3.5625 3.625 C-0.91143428 2.25274335 -0.91143428 2.25274335 0 0 Z " fill="#36AB4B" transform="translate(179,226)"/>
<path d="M0 0 C2.64 0 5.28 0 8 0 C6.84414715 3.91211733 5.64465038 6.8745041 3 10 C3.58803797 6.97580475 4.22678118 3.98241547 5 1 C3.35 1 1.7 1 0 1 C0 0.67 0 0.34 0 0 Z " fill="#E4F5FC" transform="translate(185,157)"/>
<path d="M0 0 C0.66 0 1.32 0 2 0 C0.22054913 4.04420651 -2.39529673 7.46078487 -5 11 C-5.578125 9.13671875 -5.578125 9.13671875 -6 7 C-4.2426201 3.92458518 -3.42054006 3.14018002 0 2 C0 1.34 0 0.68 0 0 Z " fill="#F8DBD7" transform="translate(52,65)"/>
<path d="M0 0 C0 0.99 0 1.98 0 3 C-1.32 3 -2.64 3 -4 3 C-4 3.66 -4 4.32 -4 5 C-5.62626404 6.38232443 -7.2925002 7.71937515 -9 9 C-9.66 8.67 -10.32 8.34 -11 8 C-9.71034824 6.62437146 -8.37310707 5.29233607 -7 4 C-6.34 4 -5.68 4 -5 4 C-5 3.34 -5 2.68 -5 2 C-2 0 -2 0 0 0 Z " fill="#54AE2B" transform="translate(53,176)"/>
<path d="M0 0 C0.33 0.66 0.66 1.32 1 2 C-0.94415395 3.94415395 -2.66013049 5.55478648 -5 7 C-6.32 6.67 -7.64 6.34 -9 6 C-6.03 4.02 -3.06 2.04 0 0 Z " fill="#DD3C27" transform="translate(84,41)"/>
<path d="M0 0 C0 2.66666667 0 5.33333333 0 8 C-1.32 7.34 -2.64 6.68 -4 6 C-3.6875 4.125 -3.6875 4.125 -3 2 C-2.01 1.34 -1.02 0.68 0 0 Z " fill="#4F90D1" transform="translate(172,185)"/>
<path d="M0 0 C0.33 0.66 0.66 1.32 1 2 C1.66 2.33 2.32 2.66 3 3 C2.01 3.495 2.01 3.495 1 4 C-0.05352843 6.30965848 -1.05719096 8.6429774 -2 11 C-2.66 11 -3.32 11 -4 11 C-2.7874262 7.27566618 -1.49140021 3.62197194 0 0 Z " fill="#EFB93B" transform="translate(40,85)"/>
<path d="M0 0 C3.63 0 7.26 0 11 0 C11 0.33 11 0.66 11 1 C9.23225581 1.53122363 7.46065917 2.04964073 5.6875 2.5625 C4.70136719 2.85253906 3.71523437 3.14257812 2.69921875 3.44140625 C0 4 0 4 -3 3 C-2.34 3 -1.68 3 -1 3 C-0.67 2.01 -0.34 1.02 0 0 Z " fill="#DA432B" transform="translate(113,72)"/>
<path d="M0 0 C6.64615385 1.47692308 6.64615385 1.47692308 8.4375 4.125 C8.7159375 5.053125 8.7159375 5.053125 9 6 C5.06326356 4.68775452 2.77280706 3.08089673 0 0 Z " fill="#37A851" transform="translate(76,222)"/>
<path d="M0 0 C0.33 0 0.66 0 1 0 C1 2.64 1 5.28 1 8 C-0.32 8 -1.64 8 -3 8 C-2.690625 7.236875 -2.38125 6.47375 -2.0625 5.6875 C-1.32106407 3.81210323 -0.63771783 1.91315348 0 0 Z " fill="#E1F0F7" transform="translate(230,179)"/>
<path d="M0 0 C0.66 0.99 1.32 1.98 2 3 C-2.75 7.875 -2.75 7.875 -5 9 C-3.7508258 5.54074837 -2.32472205 2.85306797 0 0 Z " fill="#DD412A" transform="translate(49,72)"/>
<path d="M0 0 C0.33 0.99 0.66 1.98 1 3 C-0.65 4.32 -2.3 5.64 -4 7 C-4.66 6.34 -5.32 5.68 -6 5 C-4.02 3.35 -2.04 1.7 0 0 Z " fill="#F7E1D9" transform="translate(196,58)"/>
<path d="M0 0 C0.66 0 1.32 0 2 0 C2 2.31 2 4.62 2 7 C0.35 6.67 -1.3 6.34 -3 6 C-2.67 5.01 -2.34 4.02 -2 3 C-1.34 3 -0.68 3 0 3 C0 2.01 0 1.02 0 0 Z " fill="#F5F3F2" transform="translate(197,58)"/>
</svg>
