<?xml version="1.0" encoding="UTF-8"?>
<svg version="1.1" xmlns="http://www.w3.org/2000/svg" width="324" height="324">
<path d="M0 0 C0.79328201 -0.00571014 1.58656403 -0.01142029 2.40388489 -0.01730347 C3.69594093 -0.01898026 3.69594093 -0.01898026 5.01409912 -0.02069092 C5.92842209 -0.02565582 6.84274506 -0.03062073 7.78477478 -0.03573608 C10.80881505 -0.0503374 13.83280283 -0.05715672 16.85687256 -0.06268311 C18.96191407 -0.0684367 21.06695558 -0.07419441 23.17199707 -0.07995605 C27.58697758 -0.09046059 32.00193991 -0.09630669 36.41693115 -0.09979248 C42.06374638 -0.10527276 47.71031995 -0.12929326 53.35705948 -0.15776443 C57.70661105 -0.17642409 62.05610484 -0.18159822 66.40569305 -0.18312836 C68.48682729 -0.18614843 70.56796066 -0.1941551 72.64905548 -0.20731354 C75.56649445 -0.2244417 78.48334849 -0.22247708 81.40081787 -0.21600342 C82.68072853 -0.22982559 82.68072853 -0.22982559 83.98649597 -0.243927 C93.35919839 -0.1790494 100.63331527 3.41611728 107.96624756 9.14044189 C110.34124756 11.70294189 110.34124756 11.70294189 111.96624756 14.14044189 C112.52312256 14.94481689 113.07999756 15.74919189 113.65374756 16.57794189 C116.2692784 21.68445449 116.11245364 27.21052193 116.09996033 32.83818054 C116.10222588 33.59382532 116.10449144 34.34947009 116.10682565 35.12801319 C116.11313504 37.64966856 116.11233826 40.17126976 116.11151123 42.69293213 C116.11450459 44.50509714 116.11790753 46.31726151 116.12168884 48.12942505 C116.13051397 53.04467567 116.1328663 57.95990888 116.13350463 62.87516665 C116.13421585 65.94704859 116.13635151 69.01892612 116.13900185 72.09080696 C116.14824955 82.81023565 116.15233735 93.52965192 116.15155029 104.24908447 C116.15094929 114.23745961 116.16150703 124.22578078 116.17729396 134.21414226 C116.1903715 142.79434667 116.19573412 151.37453344 116.19509488 159.95474774 C116.19484001 165.07734358 116.19768566 170.19989143 116.20827293 175.32247734 C116.21795777 180.1397422 116.21803042 184.95691319 116.2107563 189.77418137 C116.20971102 191.54022293 116.21206999 193.30627035 116.21811676 195.07230186 C116.22584754 197.48688449 116.22118481 199.90114382 116.21348572 202.3157196 C116.21862928 203.01106243 116.22377284 203.70640526 116.22907227 204.42281908 C116.18542961 210.63560615 114.93890961 216.16365146 111.52874756 221.39044189 C111.11753662 222.03497314 110.70632568 222.67950439 110.28265381 223.34356689 C108.96064384 225.14809089 107.65947586 226.67749264 105.96624756 228.14044189 C105.30624756 228.14044189 104.64624756 228.14044189 103.96624756 228.14044189 C103.96624756 228.80044189 103.96624756 229.46044189 103.96624756 230.14044189 C102.36251446 230.78735112 100.7582445 231.43292953 99.15374756 232.07794189 C98.26042725 232.43759033 97.36710693 232.79723877 96.44671631 233.16778564 C91.52434552 235.09797514 87.27752321 235.29480364 82.04779053 235.30157471 C80.67893456 235.30902206 80.67893456 235.30902206 79.28242493 235.31661987 C76.25775399 235.33124553 73.23313557 235.33804553 70.20843506 235.34356689 C68.10435993 235.34931969 66.00028482 235.35507741 63.89620972 235.36083984 C59.47944901 235.37135213 55.06270652 235.37719276 50.64593506 235.38067627 C45.0003103 235.38614988 39.35492808 235.41015279 33.7093792 235.43864822 C29.35978507 235.45732361 25.01024866 235.4624829 20.66061783 235.46401215 C18.58031011 235.46703006 16.50000319 235.47502934 14.41973495 235.48819733 C11.49999641 235.50535401 8.58084102 235.50335367 5.66107178 235.49688721 C4.80982224 235.50610199 3.95857269 235.51531677 3.08152771 235.52481079 C-5.97847884 235.46231669 -15.35766582 232.78742424 -21.91656494 226.26934814 C-30.82299439 215.8164048 -30.46923845 203.47963987 -30.40606689 190.41925049 C-30.40849893 188.64899991 -30.41222223 186.8787507 -30.41712952 185.10850525 C-30.42648437 180.32970482 -30.41715951 175.55111114 -30.40379739 170.77232695 C-30.39242741 165.75706191 -30.39659458 160.74180622 -30.39854431 155.72653198 C-30.39942538 147.30880379 -30.38838485 138.89115643 -30.36993408 130.47344971 C-30.34875562 120.75595307 -30.34526066 111.03857463 -30.35149604 101.32105958 C-30.35719947 91.95100945 -30.35153338 82.58100073 -30.34032249 73.21095657 C-30.33569089 69.23271541 -30.33479639 65.25449968 -30.33690834 61.27625656 C-30.33879826 56.58940381 -30.33063341 51.90267061 -30.31484795 47.21584511 C-30.31062241 45.50063509 -30.30974283 43.78541291 -30.31253815 42.07019997 C-30.3445705 18.89126957 -30.3445705 18.89126957 -23.03375244 10.14044189 C-16.66195635 4.2237741 -8.83510845 0.03828411 0 0 Z M-8.03375244 23.14044189 C-9.09343905 81.15828351 -9.10815382 139.10736574 -9.03375244 197.14044189 C25.28624756 197.14044189 59.60624756 197.14044189 94.96624756 197.14044189 C94.96624756 139.72044189 94.96624756 82.30044189 94.96624756 23.14044189 C60.97624756 23.14044189 26.98624756 23.14044189 -8.03375244 23.14044189 Z M35.20062256 208.44512939 C33.16630042 211.23910347 33.08338521 213.74344987 32.96624756 217.14044189 C34.18231968 220.02061271 35.269283 221.59282688 37.71624756 223.51544189 C41.06497553 224.44564411 43.6153126 223.93248107 46.96624756 223.14044189 C49.86104393 221.40356407 49.97960636 220.08891507 50.84124756 216.76544189 C50.9799303 212.74364242 50.3700713 211.28390371 47.96624756 208.14044189 C46.30857958 206.48277392 44.3627835 206.92994687 42.09124756 206.89044189 C41.20695068 206.86466064 40.32265381 206.83887939 39.41156006 206.81231689 C36.93431467 206.94472811 36.93431467 206.94472811 35.20062256 208.44512939 Z " fill="#0F0F0F" transform="translate(119.03375244140625,44.85955810546875)"/>
</svg>
