<?xml version="1.0" encoding="UTF-8"?>
<svg version="1.1" xmlns="http://www.w3.org/2000/svg" width="325" height="325">
<path d="M0 0 C1.01539352 0.00223572 1.01539352 0.00223572 2.05130005 0.0045166 C12.59442218 0.04613317 22.43603996 0.78489133 32.6875 3.3125 C34.01126537 3.60751057 35.33549636 3.90043863 36.66015625 4.19140625 C57.20905962 8.85005501 79.17111842 16.88795314 95.6875 30.3125 C95.6875 30.9725 95.6875 31.6325 95.6875 32.3125 C96.43 32.580625 97.1725 32.84875 97.9375 33.125 C100.57811949 34.26526751 102.54302844 35.40630306 104.6875 37.3125 C104.6875 37.9725 104.6875 38.6325 104.6875 39.3125 C105.27176758 39.57224609 105.85603516 39.83199219 106.45800781 40.09960938 C108.84311164 41.397156 110.43940637 42.80591122 112.359375 44.71875 C113.02324219 45.38003906 113.68710937 46.04132812 114.37109375 46.72265625 C115.05300781 47.41230469 115.73492187 48.10195313 116.4375 48.8125 C117.48357422 49.84697266 117.48357422 49.84697266 118.55078125 50.90234375 C119.20949219 51.56363281 119.86820312 52.22492187 120.546875 52.90625 C121.45131348 53.81407227 121.45131348 53.81407227 122.37402344 54.74023438 C123.6875 56.3125 123.6875 56.3125 123.6875 58.3125 C124.3475 58.3125 125.0075 58.3125 125.6875 58.3125 C126.9765625 59.7734375 126.9765625 59.7734375 128.3125 61.6875 C128.75851562 62.31398437 129.20453125 62.94046875 129.6640625 63.5859375 C130.6875 65.3125 130.6875 65.3125 130.6875 67.3125 C131.3475 67.3125 132.0075 67.3125 132.6875 67.3125 C149.43297179 88.06745095 157.64906069 115.41737227 161.6875 141.3125 C161.94551392 142.70251221 161.94551392 142.70251221 162.20874023 144.12060547 C165.89184511 168.67589008 162.11553878 195.16140583 153.6875 218.3125 C153.15382813 219.78589844 153.15382813 219.78589844 152.609375 221.2890625 C147.85380687 233.44590216 141.43164705 248.47533457 132.6875 258.3125 C132.0275 258.3125 131.3675 258.3125 130.6875 258.3125 C130.419375 259.055 130.15125 259.7975 129.875 260.5625 C128.73473249 263.20311949 127.59369694 265.16802844 125.6875 267.3125 C125.0275 267.3125 124.3675 267.3125 123.6875 267.3125 C123.43355469 267.88226563 123.17960937 268.45203125 122.91796875 269.0390625 C119.20683803 275.8958183 112.77253338 281.56617396 106.6875 286.3125 C106.0275 286.3125 105.3675 286.3125 104.6875 286.3125 C104.3575 287.3025 104.0275 288.2925 103.6875 289.3125 C101.31083318 291.26691637 98.95352737 293.05324868 96.4375 294.8125 C95.68678223 295.33859863 94.93606445 295.86469727 94.16259766 296.40673828 C74.77723208 309.65122574 48.81197675 323.5450153 24.6875 323.3125 C24.66417014 308.46602051 24.6465204 293.61954343 24.63568783 278.77304935 C24.63052506 271.88002473 24.62348272 264.98701147 24.61206055 258.09399414 C24.601053 251.44803835 24.59522378 244.80209131 24.59262276 238.15612602 C24.59076799 235.61427054 24.5871464 233.07241574 24.58176994 230.53056526 C24.57456333 226.98398538 24.5735089 223.4374551 24.57397461 219.89086914 C24.57037933 218.82848022 24.56678406 217.76609131 24.56307983 216.67150879 C24.5644545 215.71092056 24.56582916 214.75033234 24.56724548 213.76063538 C24.56586279 212.50100526 24.56586279 212.50100526 24.56445217 211.21592808 C24.6875 209.3125 24.6875 209.3125 25.6875 208.3125 C28.42644085 208.22391354 31.1400327 208.19726521 33.87890625 208.21484375 C34.69874496 208.2162587 35.51858368 208.21767365 36.36326599 208.21913147 C38.99221382 208.22474711 41.62107773 208.23730221 44.25 208.25 C46.02799357 208.25501299 47.80598846 208.25957624 49.58398438 208.26367188 C53.95185545 208.27472161 58.31966348 208.29199669 62.6875 208.3125 C62.80794678 207.2404834 62.92839355 206.1684668 63.05249023 205.06396484 C64.08717953 195.98548091 65.27482739 186.95680629 66.75 177.9375 C66.92337891 176.84695312 67.09675781 175.75640625 67.27539062 174.6328125 C68.55500638 166.70998087 68.55500638 166.70998087 69.6875 163.3125 C54.8375 163.3125 39.9875 163.3125 24.6875 163.3125 C24.64625 157.7025 24.605 152.0925 24.5625 146.3125 C24.54429199 144.55808594 24.52608398 142.80367187 24.50732422 140.99609375 C24.50147431 139.58073226 24.49637994 138.16536737 24.4921875 136.75 C24.48195557 136.03521484 24.47172363 135.32042969 24.46118164 134.58398438 C24.45862182 127.06835502 25.7699766 119.25994718 30.6875 113.3125 C39.39202773 106.1440654 48.29725533 106.03510103 59.125 106.1875 C63.270625 106.22875 67.41625 106.27 71.6875 106.3125 C71.3575 93.7725 71.0275 81.2325 70.6875 68.3125 C59.84364565 66.95701821 49.70637411 65.97304287 38.875 66 C37.56080078 65.98388672 36.24660156 65.96777344 34.89257812 65.95117188 C26.9992206 65.94723111 20.15532953 66.74382482 12.6875 69.3125 C11.79232666 69.61269043 10.89715332 69.91288086 9.97485352 70.22216797 C-1.01220191 74.04945719 -10.49535653 82.33838422 -16.07421875 92.53125 C-21.86614522 104.76020855 -23.39101201 115.68505318 -23.62890625 129.03515625 C-23.6600779 130.51428749 -23.6600779 130.51428749 -23.69187927 132.02330017 C-23.75670918 135.14046985 -23.81594684 138.25771608 -23.875 141.375 C-23.91824869 143.5019607 -23.96186489 145.62891397 -24.00585938 147.75585938 C-24.11300554 152.94132936 -24.21257183 158.12686592 -24.3125 163.3125 C-37.8425 163.3125 -51.3725 163.3125 -65.3125 163.3125 C-65.3125 178.1625 -65.3125 193.0125 -65.3125 208.3125 C-52.19346101 208.27289538 -52.19346101 208.27289538 -39.07446289 208.22241211 C-37.43636134 208.21949299 -35.79825906 208.21694442 -34.16015625 208.21484375 C-33.30160034 208.20972778 -32.44304443 208.20461182 -31.55847168 208.19934082 C-29.47613948 208.1990309 -27.3938964 208.25007824 -25.3125 208.3125 C-24.3125 209.3125 -24.3125 209.3125 -24.18945217 211.21592808 C-24.19037396 212.05568149 -24.19129576 212.89543489 -24.19224548 213.76063538 C-24.19018349 215.20151772 -24.19018349 215.20151772 -24.18807983 216.67150879 C-24.19167511 217.73389771 -24.19527039 218.79628662 -24.19897461 219.89086914 C-24.19882858 221.00292221 -24.19868256 222.11497528 -24.1985321 223.26072693 C-24.19923179 226.95638951 -24.2070268 230.65200241 -24.21484375 234.34765625 C-24.21670773 236.90213493 -24.21813173 239.45661397 -24.21913147 242.01109314 C-24.22256656 248.0601171 -24.23045736 254.10911955 -24.24048096 260.15813488 C-24.25164317 267.04315154 -24.25715282 273.92816904 -24.26217639 280.81319249 C-24.27264 294.9796383 -24.29023877 309.14606817 -24.3125 323.3125 C-25.72790978 323.16366702 -27.14306229 323.01238646 -28.55810547 322.86010742 C-29.74024124 322.73414436 -29.74024124 322.73414436 -30.94625854 322.6056366 C-48.83009321 320.39013724 -64.74545557 312.98479811 -80.3125 304.3125 C-81.21355469 303.82394531 -82.11460938 303.33539063 -83.04296875 302.83203125 C-87.27970203 300.52560191 -91.43769322 298.19376658 -95.3125 295.3125 C-95.3125 294.6525 -95.3125 293.9925 -95.3125 293.3125 C-96.055 293.044375 -96.7975 292.77625 -97.5625 292.5 C-100.20311949 291.35973249 -102.16802844 290.21869694 -104.3125 288.3125 C-104.3125 287.6525 -104.3125 286.9925 -104.3125 286.3125 C-104.89515625 286.044375 -105.4778125 285.77625 -106.078125 285.5 C-108.34036601 284.29769009 -110.11826318 282.97424087 -112.0625 281.3125 C-112.67609375 280.796875 -113.2896875 280.28125 -113.921875 279.75 C-115.3125 278.3125 -115.3125 278.3125 -115.3125 276.3125 C-115.9725 276.3125 -116.6325 276.3125 -117.3125 276.3125 C-118.8203125 274.8515625 -118.8203125 274.8515625 -120.4375 272.9375 C-120.97632813 272.31101562 -121.51515625 271.68453125 -122.0703125 271.0390625 C-123.3125 269.3125 -123.3125 269.3125 -123.3125 267.3125 C-123.9725 267.3125 -124.6325 267.3125 -125.3125 267.3125 C-126.6015625 265.8515625 -126.6015625 265.8515625 -127.9375 263.9375 C-128.38351563 263.31101562 -128.82953125 262.68453125 -129.2890625 262.0390625 C-130.3125 260.3125 -130.3125 260.3125 -130.3125 258.3125 C-130.9725 258.3125 -131.6325 258.3125 -132.3125 258.3125 C-135.29850503 254.19510697 -137.77863539 249.71982999 -140.3125 245.3125 C-140.68890625 244.65975098 -141.0653125 244.00700195 -141.453125 243.33447266 C-155.60298199 218.493478 -162.74618813 191.63069648 -162.625 163 C-162.62350952 162.32307098 -162.62201904 161.64614197 -162.6204834 160.94869995 C-162.57886683 150.40557782 -161.84010867 140.56396004 -159.3125 130.3125 C-159.01748943 128.98873463 -158.72456137 127.66450364 -158.43359375 126.33984375 C-153.77494499 105.79094038 -145.73704686 83.82888158 -132.3125 67.3125 C-131.6525 67.3125 -130.9925 67.3125 -130.3125 67.3125 C-130.044375 66.57 -129.77625 65.8275 -129.5 65.0625 C-128.35973249 62.42188051 -127.21869694 60.45697156 -125.3125 58.3125 C-124.6525 58.3125 -123.9925 58.3125 -123.3125 58.3125 C-123.05275391 57.72823242 -122.79300781 57.14396484 -122.52539062 56.54199219 C-121.227844 54.15688836 -119.81908878 52.56059363 -117.90625 50.640625 C-117.24496094 49.97675781 -116.58367187 49.31289063 -115.90234375 48.62890625 C-115.21269531 47.94699219 -114.52304688 47.26507813 -113.8125 46.5625 C-113.12285156 45.86511719 -112.43320313 45.16773438 -111.72265625 44.44921875 C-111.06136719 43.79050781 -110.40007812 43.13179687 -109.71875 42.453125 C-109.11353516 41.85016602 -108.50832031 41.24720703 -107.88476562 40.62597656 C-106.3125 39.3125 -106.3125 39.3125 -104.3125 39.3125 C-104.3125 38.6525 -104.3125 37.9925 -104.3125 37.3125 C-102.8515625 36.0234375 -102.8515625 36.0234375 -100.9375 34.6875 C-100.31101563 34.24148437 -99.68453125 33.79546875 -99.0390625 33.3359375 C-97.3125 32.3125 -97.3125 32.3125 -95.3125 32.3125 C-95.3125 31.6525 -95.3125 30.9925 -95.3125 30.3125 C-91.19510697 27.32649497 -86.71982999 24.84636461 -82.3125 22.3125 C-81.65975098 21.93609375 -81.00700195 21.5596875 -80.33447266 21.171875 C-55.493478 7.02201801 -28.63069648 -0.12118813 0 0 Z " fill="#1877F2" transform="translate(162.3125,-0.3125)"/>
<path d="M0 0 C0.33 0 0.66 0 1 0 C1 14.85 1 29.7 1 45 C14.11903899 44.96039538 14.11903899 44.96039538 27.23803711 44.90991211 C28.87613866 44.90699299 30.51424094 44.90444442 32.15234375 44.90234375 C33.44017761 44.8946698 33.44017761 44.8946698 34.75402832 44.88684082 C36.83636052 44.8865309 38.9186036 44.93757824 41 45 C42 46 42 46 42.12304783 47.90342808 C42.12166514 49.16305819 42.12166514 49.16305819 42.12025452 50.44813538 C42.12162918 51.4087236 42.12300385 52.36931183 42.12442017 53.35900879 C42.11902725 54.95259216 42.11902725 54.95259216 42.11352539 56.57836914 C42.11367142 57.69042221 42.11381744 58.80247528 42.1139679 59.94822693 C42.11326821 63.64388951 42.1054732 67.33950241 42.09765625 71.03515625 C42.09579227 73.58963493 42.09436827 76.14411397 42.09336853 78.69859314 C42.08993344 84.7476171 42.08204264 90.79661955 42.07201904 96.84563488 C42.06085683 103.73065154 42.05534718 110.61566904 42.05032361 117.50069249 C42.03986 131.6671386 42.02206072 145.83356763 42 160 C39.03 159.67 36.06 159.34 33 159 C33 158.67 33 158.34 33 158 C35.31 158 37.62 158 40 158 C40.33 121.37 40.66 84.74 41 47 C27.14 47 13.28 47 -1 47 C-1.02290439 40.4671604 -1.04283288 33.93445903 -1.05493164 27.40161133 C-1.05997317 25.17732268 -1.06680623 22.95303737 -1.07543945 20.72875977 C-1.08751298 17.53921691 -1.09322996 14.34971771 -1.09765625 11.16015625 C-1.10281754 10.15912369 -1.10797882 9.15809113 -1.11329651 8.12672424 C-1.11337204 7.20584518 -1.11344757 6.28496613 -1.11352539 5.33618164 C-1.115746 4.52121719 -1.11796661 3.70625275 -1.12025452 2.86659241 C-1 1 -1 1 0 0 Z " fill="#3175D2" transform="translate(96,163)"/>
<path d="M0 0 C0.33 0 0.66 0 1 0 C1.0991667 6.09324251 1.17328971 12.00318593 0 18 C-0.495 18.495 -0.495 18.495 -1 19 C-13.54 19 -26.08 19 -39 19 C-38.67 55.3 -38.34 91.6 -38 129 C-35.69 129.33 -33.38 129.66 -31 130 C-34.16609462 131.87620422 -36.35832401 132.09662822 -40 132 C-40.02332986 117.15352051 -40.0409796 102.30704343 -40.05181217 87.46054935 C-40.05697494 80.56752473 -40.06401728 73.67451147 -40.07543945 66.78149414 C-40.086447 60.13553835 -40.09227622 53.48959131 -40.09487724 46.84362602 C-40.09673201 44.30177054 -40.1003536 41.75991574 -40.10573006 39.21806526 C-40.11293667 35.67148538 -40.1139911 32.1249551 -40.11352539 28.57836914 C-40.11712067 27.51598022 -40.12071594 26.45359131 -40.12442017 25.35900879 C-40.1230455 24.39842056 -40.12167084 23.43783234 -40.12025452 22.44813538 C-40.12117631 21.60838197 -40.1220981 20.76862856 -40.12304783 19.90342808 C-40 18 -40 18 -39 17 C-36.26105915 16.91141354 -33.5474673 16.88476521 -30.80859375 16.90234375 C-29.57883568 16.90446617 -29.57883568 16.90446617 -28.32423401 16.90663147 C-25.69528618 16.91224711 -23.06642227 16.92480221 -20.4375 16.9375 C-18.65950643 16.94251299 -16.88151154 16.94707624 -15.10351562 16.95117188 C-10.73561842 16.96137248 -6.3679036 16.98094468 -2 17 C-1.34 11.39 -0.68 5.78 0 0 Z " fill="#3275C8" transform="translate(227,191)"/>
<path d="M0 0 C1 2 1 2 0.29296875 4.56640625 C-0.07183594 5.55511719 -0.43664063 6.54382813 -0.8125 7.5625 C-1.16957031 8.55378906 -1.52664062 9.54507813 -1.89453125 10.56640625 C-3 13 -3 13 -5 14 C-5.60453878 16.20768607 -5.95581843 18.42009853 -6.33984375 20.67578125 C-7.09572111 23.33700627 -8.34136582 24.80672993 -10 27 C-10.98689197 29.57032557 -10.98689197 29.57032557 -11.6875 32.25 C-11.93886719 33.14203125 -12.19023437 34.0340625 -12.44921875 34.953125 C-12.63097656 35.62859375 -12.81273437 36.3040625 -13 37 C-13.33 37 -13.66 37 -14 37 C-13.40126619 31.66709191 -12.17808684 26.92259823 -10.375 21.875 C-10.1157373 21.141604 -9.85647461 20.40820801 -9.58935547 19.65258789 C-7.0480853 12.71041624 -3.74319158 6.36785549 0 0 Z " fill="#2C72D1" transform="translate(20,84)"/>
<path d="M0 0 C5.5719424 -0.16168583 10.57071062 0.29065588 16 1.625 C16.7211499 1.79741211 17.4422998 1.96982422 18.18530273 2.14746094 C26.03083035 4.1137415 33.51042152 6.97594408 41 10 C40.01 10.66 39.02 11.32 38 12 C38 11.34 38 10.68 38 10 C36.4840625 9.8453125 36.4840625 9.8453125 34.9375 9.6875 C31.55485043 9.09687865 29.27893367 8.19340259 26.2265625 6.7578125 C22.03060838 5.32971583 17.59401351 5.02640457 13.20703125 4.52734375 C10.30165582 4.04960236 8.53199959 3.3967734 6 2 C4.00889599 1.61709538 2.00899487 1.27395385 0 1 C0 0.67 0 0.34 0 0 Z " fill="#2B74D3" transform="translate(184,2)"/>
<path d="M0 0 C1.09651823 3.41139003 0.94215473 6.20655581 0.5625 9.75 C0.46066406 10.73484375 0.35882812 11.7196875 0.25390625 12.734375 C0.12822266 13.85585937 0.12822266 13.85585937 0 15 C-0.66 15 -1.32 15 -2 15 C-2.01981934 15.59014893 -2.03963867 16.18029785 -2.06005859 16.78833008 C-2.15534659 19.46350096 -2.26500939 22.13789498 -2.375 24.8125 C-2.4059375 25.74126953 -2.436875 26.67003906 -2.46875 27.62695312 C-2.50742187 28.51962891 -2.54609375 29.41230469 -2.5859375 30.33203125 C-2.63306885 31.56530151 -2.63306885 31.56530151 -2.68115234 32.82348633 C-3 35 -3 35 -5 38 C-5.67476415 25.02953354 -2.96898538 12.56109199 0 0 Z " fill="#2E76D5" transform="translate(5,121)"/>
<path d="M0 0 C0.66 0.33 1.32 0.66 2 1 C1.21625 1.5775 0.4325 2.155 -0.375 2.75 C-2.80047244 4.82897637 -3.85694417 6.09040333 -5 9 C-5.66 9 -6.32 9 -7 9 C-7 9.66 -7 10.32 -7 11 C-6.34 11 -5.68 11 -5 11 C-4.67 12.32 -4.34 13.64 -4 15 C-5.32 15 -6.64 15 -8 15 C-9.77409808 16.92022703 -9.77409808 16.92022703 -11 19 C-11.35021929 14.09692996 -10.58145854 11.18374314 -8 7 C-5.45774003 4.20351403 -3.14525008 2.09683339 0 0 Z " fill="#1F76E3" transform="translate(199,109)"/>
<path d="M0 0 C2 2 2 2 2.1953125 4.3828125 C2.17210937 5.28773438 2.14890625 6.19265625 2.125 7.125 C2.10695312 8.03507813 2.08890625 8.94515625 2.0703125 9.8828125 C2.03550781 10.93082031 2.03550781 10.93082031 2 12 C2.99 12.33 3.98 12.66 5 13 C5 13.99 5 14.98 5 16 C4.34 16 3.68 16 3 16 C3 18.97 3 21.94 3 25 C2.67 25 2.34 25 2 25 C0.62707087 16.6030674 -0.31274919 8.51372785 0 0 Z " fill="#2D78D5" transform="translate(0,167)"/>
<path d="M0 0 C2.67294585 4.00941878 3.47242598 8.04704937 4.625 12.6875 C4.85445313 13.56083984 5.08390625 14.43417969 5.3203125 15.33398438 C6.6695903 20.71101705 7.24513115 25.45874587 7 31 C6.67 31 6.34 31 6 31 C6 29.02 6 27.04 6 25 C5.34 25 4.68 25 4 25 C3.87882812 24.154375 3.75765625 23.30875 3.6328125 22.4375 C2.53686995 14.88186839 2.53686995 14.88186839 0.875 7.4375 C0 4 0 4 0 0 Z " fill="#2B76D2" transform="translate(316,110)"/>
<path d="M0 0 C1 3 1 3 0.22265625 4.82421875 C-0.8515625 6.54947917 -1.92578125 8.27473958 -3 10 C-3.66 10 -4.32 10 -5 10 C-5.33 11.65 -5.66 13.3 -6 15 C-6.99 15 -7.98 15 -9 15 C-9.33 15.99 -9.66 16.98 -10 18 C-10.33 17.34 -10.66 16.68 -11 16 C-9.63671875 13.3984375 -9.63671875 13.3984375 -7.6875 10.375 C-7.05199219 9.37210938 -6.41648437 8.36921875 -5.76171875 7.3359375 C-5.18035156 6.56507812 -4.59898438 5.79421875 -4 5 C-3.34 5 -2.68 5 -2 5 C-1.34 3.35 -0.68 1.7 0 0 Z " fill="#2675D8" transform="translate(34,62)"/>
<path d="M0 0 C0.33 0 0.66 0 1 0 C1.31663816 6.71272902 0.15574012 12.51128872 -1.5 19 C-1.73847656 19.96550781 -1.97695313 20.93101562 -2.22265625 21.92578125 C-2.80687868 24.28603987 -3.39946281 26.64384982 -4 29 C-4.33 29 -4.66 29 -5 29 C-4.91240742 26.45679484 -4.80546587 23.91683067 -4.6875 21.375 C-4.66494141 20.66214844 -4.64238281 19.94929688 -4.61914062 19.21484375 C-4.37768173 14.42956751 -3.35048736 11.26025833 -1 7 C-0.2863276 3.26228166 -0.2863276 3.26228166 0 0 Z " fill="#2B6FD2" transform="translate(322,184)"/>
<path d="M0 0 C0.8971875 0.7115625 0.8971875 0.7115625 1.8125 1.4375 C4.00382924 3.16465744 4.00382924 3.16465744 7 4 C5.09118566 5.03544174 3.17260796 6.05290085 1.25 7.0625 C0.18265625 7.63097656 -0.8846875 8.19945312 -1.984375 8.78515625 C-5.02593537 10.01044806 -6.04893565 10.25348607 -9 9 C-7.865625 8.4225 -6.73125 7.845 -5.5625 7.25 C-2.64869739 5.67174649 -2.64869739 5.67174649 -1.125 2.8125 C-1.08375 2.214375 -1.0425 1.61625 -1 1 C-0.67 0.67 -0.34 0.34 0 0 Z " fill="#267BE0" transform="translate(229,304)"/>
<path d="M0 0 C2.22922955 2.22922955 2.88128953 4.09135278 4 7 C4.33 7.33 4.66 7.66 5 8 C5.42339421 9.59207821 5.78966289 11.19957573 6.125 12.8125 C6.31320313 13.68519531 6.50140625 14.55789062 6.6953125 15.45703125 C6.99875868 17.98963976 6.79414358 19.60079158 6 22 C0.44419134 7.40318907 0.44419134 7.40318907 0 0 Z " fill="#2A75D3" transform="translate(5,201)"/>
<path d="M0 0 C2.99381354 2.80466193 5.1993621 5.61184269 7.3125 9.125 C8.11107422 10.42824219 8.11107422 10.42824219 8.92578125 11.7578125 C9.28027344 12.49773437 9.63476562 13.23765625 10 14 C9.67 14.66 9.34 15.32 9 16 C8.34 15.67 7.68 15.34 7 15 C7 13.68 7 12.36 7 11 C6.01 11 5.02 11 4 11 C3.32880451 9.5437455 2.66318193 8.08492133 2 6.625 C1.62875 5.81289062 1.2575 5.00078125 0.875 4.1640625 C0 2 0 2 0 0 Z " fill="#2873DA" transform="translate(295,69)"/>
<path d="M0 0 C0.33 0 0.66 0 1 0 C1.09945415 6.11090483 1.0712828 11.97403427 0 18 C-0.99 18.33 -1.98 18.66 -3 19 C-2.01 12.73 -1.02 6.46 0 0 Z " fill="#2B75D2" transform="translate(227,191)"/>
<path d="M0 0 C0.66 0.33 1.32 0.66 2 1 C1.21625 1.5775 0.4325 2.155 -0.375 2.75 C-3.05598393 4.74545895 -3.05598393 4.74545895 -4.0625 7.1875 C-5 9 -5 9 -7.125 9.75 C-8.053125 9.87375 -8.053125 9.87375 -9 10 C-7.24277009 5.68679932 -4.1937832 2.0968916 0 0 Z " fill="#276BCA" transform="translate(199,109)"/>
<path d="M0 0 C0.33 0.66 0.66 1.32 1 2 C-0.98 2.66 -2.96 3.32 -5 4 C-5 4.99 -5 5.98 -5 7 C-5.66 7 -6.32 7 -7 7 C-7.33 7.66 -7.66 8.32 -8 9 C-8.99 8.34 -9.98 7.68 -11 7 C-9.54261898 6.01941648 -8.08406325 5.04057868 -6.625 4.0625 C-5.81289062 3.51722656 -5.00078125 2.97195312 -4.1640625 2.41015625 C-2 1 -2 1 0 0 Z " fill="#2A76D9" transform="translate(82,21)"/>
<path d="M0 0 C1 2 1 2 0.22265625 4.6015625 C-0.16019531 5.59929687 -0.54304688 6.59703125 -0.9375 7.625 C-1.50791016 9.12933594 -1.50791016 9.12933594 -2.08984375 10.6640625 C-2.39019531 11.43492188 -2.69054687 12.20578125 -3 13 C-3.66 12.67 -4.32 12.34 -5 12 C-4.54738642 10.56068883 -4.08767021 9.12361001 -3.625 7.6875 C-3.24214844 6.48673828 -3.24214844 6.48673828 -2.8515625 5.26171875 C-2 3 -2 3 0 0 Z " fill="#2878DA" transform="translate(20,84)"/>
<path d="M0 0 C0.66 0 1.32 0 2 0 C2 0.66 2 1.32 2 2 C2.99 2.33 3.98 2.66 5 3 C3.35 4.98 1.7 6.96 0 9 C-1.53445094 5.93109813 -0.54984289 3.29905734 0 0 Z " fill="#2376DE" transform="translate(149,79)"/>
<path d="M0 0 C0 3.10551666 -0.5393715 4.35261084 -2 7 C-2.99 7 -3.98 7 -5 7 C-5.33 7.99 -5.66 8.98 -6 10 C-6.66 9.67 -7.32 9.34 -8 9 C-7.34 8.01 -6.68 7.02 -6 6 C-5.34 6 -4.68 6 -4 6 C-3.71125 5.38125 -3.4225 4.7625 -3.125 4.125 C-2 2 -2 2 0 0 Z " fill="#2B75D6" transform="translate(43,52)"/>
<path d="M0 0 C2.97 0 5.94 0 9 0 C9 1.32 9 2.64 9 4 C6.03 3.01 3.06 2.02 0 1 C0 0.67 0 0.34 0 0 Z " fill="#2C7ADA" transform="translate(93,309)"/>
<path d="M0 0 C1.32 1.65 2.64 3.3 4 5 C0.09161134 5 -1.11594107 3.49432124 -4 1 C-2.68 0.67 -1.36 0.34 0 0 Z " fill="#2C76D8" transform="translate(71,293)"/>
<path d="M0 0 C0.66 0.33 1.32 0.66 2 1 C1.34 4.3 0.68 7.6 0 11 C-0.33 11 -0.66 11 -1 11 C-1.125 3.375 -1.125 3.375 0 0 Z " fill="#217DED" transform="translate(1,156)"/>
</svg>
